<svg xmlns="http://www.w3.org/2000/svg" width="236" height="236" fill="none"><g opacity=".5"><path d="M236 0H0V236H236V0Z" fill="#fff"/><path d="M196.057 82.495l-54.56 54.73L74.67 81.6l51.533-59.105 69.853 60z" fill="#A0A0A0"/><path d="M199.086 109.292l-70.716 31.15-42.046-76.12L155.8 27.975l43.287 81.317z" fill="#E5E5E5"/><path d="M158.588 147.637c17.87-31.225 7.044-71.023-24.18-88.893S63.385 51.7 45.515 82.925s-7.044 71.023 24.18 88.892 71.022 7.044 88.892-24.18z" fill="#8E8E8E"/><path d="M51.85 188.127L84.43 115.14l-4.06-1.957-37.02 70.884a4.73 4.73 0 0 0 2.146 6.395c2.398 1.157 5.258.105 6.352-2.335z" fill="#E2E2E2"/><path d="M101.836 109.816c5.24-10.873 3.166-22.734-4.63-26.5S78.84 85.338 73.6 96.212s-3.166 22.734 4.63 26.5 18.365-2.012 23.605-12.886z" fill="#F2F2F2"/><path d="M96.597 107.49c3.812-7.912 2.865-16.272-2.117-18.672s-12.1 2.068-15.923 9.98-2.864 16.27 2.117 18.673 12.11-2.068 15.923-9.98z" opacity=".2" fill="#B3B3B3"/><path d="M165.8 206.868l-32.623-72.966-4.186 1.724 28.122 74.86a4.73 4.73 0 0 0 6.205 2.671c2.44-1.01 3.576-3.85 2.482-6.29z" fill="#E2E2E2"/><path d="M128.54 105.21l6.12 14.83a1.99 1.99 0 0 1-3.702 1.515l-6.92-16.743c-.252-.63-.883-1.03-1.556-.99-1.115.042-1.85 1.178-1.41 2.23l7.046 17.058c.358.863-.063 1.85-.904 2.188l-.652.273c-.82.337-1.767-.042-2.104-.883l-6.962-16.848c-.463-1.136-1.935-1.4-2.798-.547a1.68 1.68 0 0 0-.357 1.851l7.004 16.974c.316.757-.042 1.62-.8 1.935l-.968.4c-.757.315-1.62-.042-1.935-.8l-6.1-14.808c-.252-.6-1.114-.526-1.283.084-1.24 4.817-.82 10.706 1.557 16.47 4.606 11.17 14.83 17.522 22.822 14.24 7.992-3.302 10.748-15.018 6.14-26.187-2.503-6.037-6.646-10.685-11.2-13.146-.652-.337-1.325.273-1.05.904z" fill="#F2F2F2"/></g></svg>